<svg width="136" height="27" viewBox="0 0 136 27" fill="none" xmlns="http://www.w3.org/2000/svg">
<path opacity="0.8" d="M28.234 9.452V7.67H37.234V9.452H33.76V20H31.744V9.452H28.234ZM37.7248 11.972C38.3488 11.192 39.3808 10.802 40.8208 10.802C42.2608 10.802 43.2868 11.192 43.8988 11.972C44.5228 12.752 44.8348 13.922 44.8348 15.482C44.8348 17.042 44.5348 18.218 43.9348 19.01C43.3348 19.802 42.2968 20.198 40.8208 20.198C39.3448 20.198 38.3068 19.802 37.7068 19.01C37.1068 18.218 36.8068 17.042 36.8068 15.482C36.8068 13.922 37.1128 12.752 37.7248 11.972ZM39.2008 17.822C39.4768 18.302 40.0168 18.542 40.8208 18.542C41.6248 18.542 42.1648 18.302 42.4408 17.822C42.7168 17.342 42.8548 16.556 42.8548 15.464C42.8548 14.372 42.7048 13.598 42.4048 13.142C42.1168 12.686 41.5888 12.458 40.8208 12.458C40.0528 12.458 39.5188 12.686 39.2188 13.142C38.9308 13.598 38.7868 14.372 38.7868 15.464C38.7868 16.556 38.9248 17.342 39.2008 17.822ZM51.6257 12.674H49.1417V16.634C49.1417 17.366 49.1957 17.852 49.3037 18.092C49.4117 18.332 49.6877 18.452 50.1317 18.452L51.6077 18.398L51.6977 19.964C50.8937 20.12 50.2817 20.198 49.8617 20.198C48.8417 20.198 48.1397 19.964 47.7557 19.496C47.3837 19.028 47.1977 18.146 47.1977 16.85V12.674H46.0457V11H47.1977V8.39H49.1417V11H51.6257V12.674ZM59.8949 13.772V17.876C59.9069 18.14 59.9729 18.338 60.0929 18.47C60.2249 18.59 60.4229 18.668 60.6869 18.704L60.6329 20.198C59.6009 20.198 58.8029 19.976 58.2389 19.532C57.2789 19.976 56.3129 20.198 55.3409 20.198C53.5529 20.198 52.6589 19.244 52.6589 17.336C52.6589 16.424 52.8989 15.764 53.3789 15.356C53.8709 14.948 54.6209 14.702 55.6289 14.618L57.9509 14.42V13.772C57.9509 13.292 57.8429 12.956 57.6269 12.764C57.4229 12.572 57.1169 12.476 56.7089 12.476C55.9409 12.476 54.9809 12.524 53.8289 12.62L53.2529 12.656L53.1809 11.27C54.4889 10.958 55.6889 10.802 56.7809 10.802C57.8849 10.802 58.6769 11.042 59.1569 11.522C59.6489 11.99 59.8949 12.74 59.8949 13.772ZM55.8629 16.004C55.0349 16.076 54.6209 16.526 54.6209 17.354C54.6209 18.182 54.9869 18.596 55.7189 18.596C56.3189 18.596 56.9549 18.5 57.6269 18.308L57.9509 18.2V15.806L55.8629 16.004ZM62.4659 20V7.256H64.4279V20H62.4659ZM74.2317 10.802C74.8677 10.802 75.6177 10.886 76.4817 11.054L76.9317 11.144L76.8597 12.692C75.9117 12.596 75.2097 12.548 74.7537 12.548C73.8417 12.548 73.2297 12.752 72.9177 13.16C72.6057 13.568 72.4497 14.336 72.4497 15.464C72.4497 16.592 72.5997 17.372 72.8997 17.804C73.1997 18.236 73.8237 18.452 74.7717 18.452L76.8777 18.308L76.9317 19.874C75.7197 20.09 74.8077 20.198 74.1957 20.198C72.8277 20.198 71.8617 19.832 71.2977 19.1C70.7457 18.356 70.4697 17.144 70.4697 15.464C70.4697 13.784 70.7637 12.59 71.3517 11.882C71.9397 11.162 72.8997 10.802 74.2317 10.802ZM79.2267 11.972C79.8507 11.192 80.8827 10.802 82.3227 10.802C83.7627 10.802 84.7887 11.192 85.4007 11.972C86.0247 12.752 86.3367 13.922 86.3367 15.482C86.3367 17.042 86.0367 18.218 85.4367 19.01C84.8367 19.802 83.7987 20.198 82.3227 20.198C80.8467 20.198 79.8087 19.802 79.2087 19.01C78.6087 18.218 78.3087 17.042 78.3087 15.482C78.3087 13.922 78.6147 12.752 79.2267 11.972ZM80.7027 17.822C80.9787 18.302 81.5187 18.542 82.3227 18.542C83.1267 18.542 83.6667 18.302 83.9427 17.822C84.2187 17.342 84.3567 16.556 84.3567 15.464C84.3567 14.372 84.2067 13.598 83.9067 13.142C83.6187 12.686 83.0907 12.458 82.3227 12.458C81.5547 12.458 81.0207 12.686 80.7207 13.142C80.4327 13.598 80.2887 14.372 80.2887 15.464C80.2887 16.556 80.4267 17.342 80.7027 17.822ZM90.2477 20H88.2857V11H90.2297V11.558C91.1057 11.054 91.9337 10.802 92.7137 10.802C93.9137 10.802 94.7297 11.144 95.1617 11.828C95.6057 12.5 95.8277 13.616 95.8277 15.176V20H93.8837V15.23C93.8837 14.258 93.7757 13.568 93.5597 13.16C93.3557 12.752 92.9297 12.548 92.2817 12.548C91.6697 12.548 91.0817 12.668 90.5177 12.908L90.2477 13.016V20ZM102.954 12.674H100.47V16.634C100.47 17.366 100.524 17.852 100.632 18.092C100.74 18.332 101.016 18.452 101.46 18.452L102.936 18.398L103.026 19.964C102.222 20.12 101.61 20.198 101.19 20.198C100.17 20.198 99.4678 19.964 99.0838 19.496C98.7118 19.028 98.5258 18.146 98.5258 16.85V12.674H97.3738V11H98.5258V8.39H100.47V11H102.954V12.674ZM111.223 13.772V17.876C111.235 18.14 111.301 18.338 111.421 18.47C111.553 18.59 111.751 18.668 112.015 18.704L111.961 20.198C110.929 20.198 110.131 19.976 109.567 19.532C108.607 19.976 107.641 20.198 106.669 20.198C104.881 20.198 103.987 19.244 103.987 17.336C103.987 16.424 104.227 15.764 104.707 15.356C105.199 14.948 105.949 14.702 106.957 14.618L109.279 14.42V13.772C109.279 13.292 109.171 12.956 108.955 12.764C108.751 12.572 108.445 12.476 108.037 12.476C107.269 12.476 106.309 12.524 105.157 12.62L104.581 12.656L104.509 11.27C105.817 10.958 107.017 10.802 108.109 10.802C109.213 10.802 110.005 11.042 110.485 11.522C110.977 11.99 111.223 12.74 111.223 13.772ZM107.191 16.004C106.363 16.076 105.949 16.526 105.949 17.354C105.949 18.182 106.315 18.596 107.047 18.596C107.647 18.596 108.283 18.5 108.955 18.308L109.279 18.2V15.806L107.191 16.004ZM117.052 10.802C117.688 10.802 118.438 10.886 119.302 11.054L119.752 11.144L119.68 12.692C118.732 12.596 118.03 12.548 117.574 12.548C116.662 12.548 116.05 12.752 115.738 13.16C115.426 13.568 115.27 14.336 115.27 15.464C115.27 16.592 115.42 17.372 115.72 17.804C116.02 18.236 116.644 18.452 117.592 18.452L119.698 18.308L119.752 19.874C118.54 20.09 117.628 20.198 117.016 20.198C115.648 20.198 114.682 19.832 114.118 19.1C113.566 18.356 113.29 17.144 113.29 15.464C113.29 13.784 113.584 12.59 114.172 11.882C114.76 11.162 115.72 10.802 117.052 10.802ZM126.491 12.674H124.007V16.634C124.007 17.366 124.061 17.852 124.169 18.092C124.277 18.332 124.553 18.452 124.997 18.452L126.473 18.398L126.563 19.964C125.759 20.12 125.147 20.198 124.727 20.198C123.707 20.198 123.005 19.964 122.621 19.496C122.249 19.028 122.063 18.146 122.063 16.85V12.674H120.911V11H122.063V8.39H124.007V11H126.491V12.674ZM134.346 12.854C132.93 12.662 131.904 12.566 131.268 12.566C130.632 12.566 130.188 12.644 129.936 12.8C129.696 12.944 129.576 13.178 129.576 13.502C129.576 13.826 129.708 14.054 129.972 14.186C130.248 14.318 130.884 14.474 131.88 14.654C132.888 14.822 133.602 15.092 134.022 15.464C134.442 15.836 134.652 16.496 134.652 17.444C134.652 18.392 134.346 19.088 133.734 19.532C133.134 19.976 132.252 20.198 131.088 20.198C130.356 20.198 129.432 20.096 128.316 19.892L127.758 19.802L127.83 18.164C129.27 18.356 130.308 18.452 130.944 18.452C131.58 18.452 132.03 18.374 132.294 18.218C132.57 18.062 132.708 17.804 132.708 17.444C132.708 17.084 132.576 16.838 132.312 16.706C132.06 16.562 131.442 16.412 130.458 16.256C129.486 16.088 128.772 15.83 128.316 15.482C127.86 15.134 127.632 14.498 127.632 13.574C127.632 12.65 127.944 11.96 128.568 11.504C129.204 11.048 130.014 10.82 130.998 10.82C131.766 10.82 132.708 10.916 133.824 11.108L134.382 11.216L134.346 12.854Z" fill="white"/>
<path d="M18 6H2C0.9 6 0 6.9 0 8V20C0 21.1 0.9 22 2 22H18C19.1 22 20 21.1 20 20V8C20 6.9 19.1 6 18 6ZM18 20H2V8H18V20ZM2 2H18V4H2V2ZM2 24H18V26H2V24ZM10 14C11.38 14 12.5 12.88 12.5 11.5C12.5 10.12 11.38 9 10 9C8.62 9 7.5 10.12 7.5 11.5C7.5 12.88 8.62 14 10 14ZM10 10.5C10.55 10.5 11 10.95 11 11.5C11 12.05 10.55 12.5 10 12.5C9.45 12.5 9 12.05 9 11.5C9 10.95 9.45 10.5 10 10.5ZM15 17.99C15 15.9 11.69 15 10 15C8.31 15 5 15.9 5 17.99V19H15V17.99ZM6.81 17.5C7.42 16.98 8.84 16.5 10 16.5C11.17 16.5 12.59 16.98 13.2 17.5H6.81Z" fill="white"/>
</svg>
